<?xml version="1.0"?>
<svg width="400" height="400" xmlns="http://www.w3.org/2000/svg" xmlns:svg="http://www.w3.org/2000/svg" version="1.1">
 <!-- Generator: Adobe Illustrator 29.7.1, SVG Export Plug-In . SVG Version: 2.1.1 Build 8)  -->
 <defs>
  <style>.st0 {
        fill: #2e7c30;
      }

      .st1 {
        fill: #03b8a9;
      }

      .st2 {
        fill: #1f88e5;
      }

      .st3 {
        fill: #fff;
      }

      .st4 {
        fill: #4387de;
      }</style>
 </defs>
 <g class="layer">
  <title>Layer 1</title>
  <path class="st3" d="m271.72,384.39c48.45,-72.46 38.33,-160.29 -75.3,-234.37l-142.57,-92.13l53.26,-34.42l162.56,105.05c129.51,84.43 98.62,190.12 2.06,255.87z" id="svg_16"/>
  <path class="st0" d="m296.52,134.1c80.57,81.28 25.86,190.33 -55.83,218.79c0.26,-0.22 0.51,-0.46 0.77,-0.7c65.27,-40.45 99.62,-133.9 28.47,-205.68l-86.49,-86.49c6.81,-6.46 13.51,-12.82 19.94,-19.06l93.14,93.14z" id="svg_17"/>
  <path class="st1" d="m269.93,146.51c71.15,71.78 36.8,165.23 -28.47,205.68c49.87,-45.86 68.87,-125.72 6.31,-188.84l-84.28,-84.28c6.67,-6.45 13.37,-12.8 19.95,-19.05l86.49,86.49z" id="svg_18"/>
  <path class="st2" d="m205.13,197.25c40.88,41.24 44.52,90.13 27.09,130.47c34.74,-36.6 45.85,-95.44 -0.74,-142.44l-58.48,-58.48l-19.16,19.16l51.29,51.29zm42.64,-33.9c62.56,63.12 43.56,142.98 -6.31,188.84c-0.55,0.34 -1.09,0.68 -1.63,0.99c-41.06,14 -88.81,7.62 -129.6,-32.79c-85.46,-93.66 -17.15,-173.27 53.26,-241.32l84.28,84.28z" id="svg_19"/>
  <path class="st2" d="m241.46,352.19c-0.26,0.24 -0.51,0.48 -0.77,0.7c-0.28,0.1 -0.57,0.2 -0.86,0.29c0.54,-0.31 1.08,-0.65 1.63,-0.99z" id="svg_20"/>
 </g>
</svg>